<svg height="163" viewBox="0 0 262 163" width="262" xmlns="http://www.w3.org/2000/svg"><g fill="none"><path d="m130.68 104.59-33.19-51.88-.05 43.59-57.2-96.3h-40.24v162.57h39.79l.13-96.18 56.61 91.87z" fill="#fff"/><path d="m97.5 41.79h39.74l.09-.46v-41.33h-39.79l-.05 41.33z" fill="#fff"/><path d="m198.66 86.86c-9.520128-.1804784-18.121277 5.656445-21.47 14.57 5.574789-8.3368979 16.189673-11.6867789 25.54-8.06 4.32 1.76 10 4.6 14.5 3.08-4.279694-6.0061186-11.195105-9.5774048-18.57-9.59z" fill="#96d8e9"/><path d="m243.75 106.42c0-4.87-2.65-6-8.15-8-4.08-1.42-8.71-3.02-12.08-7.42-.66-.87-1.27-1.85-1.92-2.89-1.45618-2.6935901-3.430734-5.072571-5.81-7-3.21-2.36-7.42-3.51-12.88-3.51-10.955739.0076705-20.825808 6.6206169-25 16.75 5.276964-7.3221756 14.046716-11.2894974 23.030147-10.4185391 8.983431.8709584 16.827741 6.4490408 20.599853 14.6485391 1.884615 3.109762 5.601337 4.594819 9.11 3.64 5.37-1.15 5 3.93 13.11 5.65z" fill="#48c4e5"/><g fill="#fff"><path d="m261.46 105.38v-.11c-.12-32.24-26.29-59.82-58.55-59.82-19.702915-.0136835-38.088223 9.8950614-48.91 26.36l-.21-.36-16.56-26-39.73-.0000142 37.75 59.1200142-36.84 58h38.59l16.79-25.79 17.09 25.79h38.6l-35-55.08c-.580995-1.073162-.896464-2.269886-.92-3.49-.002654-7.7796129 3.08661-15.2413552 8.587627-20.7423725 5.501018-5.5010174 12.96276-8.5902813 20.742373-8.5876275 16.22 0 18.93 9.7 22.43 14.26 6.91 9 20.71 5.06 20.71 16.8.041086 2.750945 1.546662 5.271004 3.949593 6.610896 2.402931 1.339891 5.338154 1.296053 7.7-.115 2.361845-1.411054 3.791493-3.974951 3.750407-6.725896v-.12z"/><path d="m261.5 113.68c.392278 2.741801.004116 5.538653-1.12 8.07-2.2 5.09-5.87 3.39-5.87 3.39s-3.16-1.54-1.24-4.49c2.13-3.29 6.34-2.91 8.23-6.97z"/></g></g></svg>